<svg width="15" height="12" viewBox="0 0 15 12" fill="none" xmlns="http://www.w3.org/2000/svg">
<path d="M6.62166 9.22C6.62166 8.48 6.42166 7.84 6.01166 7.32C5.39166 6.54 4.18166 6.44 3.48166 6.6C3.19166 4.95 4.59166 2.85 6.40166 1.95L5.01166 0C2.28166 1.3 -0.408338 4.28 0.0516622 8.05C0.341662 10.43 1.72166 12 3.67166 12C4.52166 12 5.23166 11.75 5.79166 11.25C6.35166 10.75 6.62166 10.07 6.62166 9.22ZM14.6717 9.22C14.6717 8.48 14.4717 7.84 14.0617 7.32C13.4317 6.54 12.2317 6.44 11.5317 6.6C11.2417 4.95 12.6417 2.85 14.4517 1.95L13.0617 0C10.3317 1.3 7.65166 4.28 8.11166 8.05C8.40166 10.43 9.77166 12 11.7217 12C12.5717 12 13.2817 11.75 13.8417 11.25C14.4017 10.75 14.6717 10.07 14.6717 9.22Z" fill="#38BDF8"/>
</svg>
