<svg width="15" height="15" viewBox="0 0 15 15" fill="none" xmlns="http://www.w3.org/2000/svg">
<path d="M15 1.77927C14.4484 2.07995 13.8558 2.28311 13.2328 2.37493C13.8756 1.90181 14.3565 1.15718 14.5858 0.279967C13.9819 0.721218 13.3209 1.03181 12.6317 1.19824C12.1682 0.58947 11.5543 0.185967 10.8852 0.050377C10.2162 -0.0852125 9.52948 0.0546982 8.93172 0.448387C8.33395 0.842076 7.85857 1.46752 7.57938 2.22761C7.30018 2.9877 7.2328 3.83991 7.38769 4.65193C6.16402 4.57635 4.96694 4.18511 3.87415 3.5036C2.78135 2.82209 1.81726 1.86554 1.04444 0.696035C0.78019 1.25675 0.628248 1.90686 0.628248 2.59922C0.627953 3.22251 0.75273 3.83624 0.991508 4.38598C1.23029 4.93572 1.57568 5.40446 1.99705 5.75061C1.50837 5.73148 1.03048 5.56905 0.603145 5.27684V5.3256C0.603095 6.19978 0.848916 7.04707 1.2989 7.72368C1.74888 8.40029 2.3753 8.86456 3.07188 9.03771C2.61855 9.18863 2.14327 9.21086 1.68193 9.10272C1.87847 9.8549 2.26129 10.5127 2.77682 10.9839C3.29235 11.4551 3.91477 11.7163 4.55695 11.7308C3.46681 12.7835 2.12051 13.3545 0.734608 13.352C0.489109 13.3521 0.243819 13.3344 0 13.2992C1.40677 14.4118 3.04435 15.0023 4.71681 15C10.3783 15 13.4733 9.23193 13.4733 4.22936C13.4733 4.06683 13.47 3.90268 13.4641 3.74016C14.0661 3.20461 14.5857 2.54144 14.9987 1.78171L15 1.77927Z" fill="#F8F8F8"/>
</svg>
